<?xml version="1.0" encoding="UTF-8"?>
<svg id="Layer_1" data-name="Layer 1" xmlns="http://www.w3.org/2000/svg" viewBox="0 0 3194 2258">
  <g>
    <path d="M353.09,1454.17c35.63-11.7,71.99-21.91,109.21-27.15,37.34-4.69,75.12-2.29,112.6-2.49,74.99.61,149.85-7.35,223.52-21.01,49.13-9.1,97.57-21.55,145.98-34.19,193.34-51.54,390.34-93.37,590.53-107.79,150.08-9.92,300.33,7.74,450.42,8.05,99.98.96,199.42-16.85,293.12-51.6,93.71-35.43,192.68-56.72,292.26-67.03,49.84-5.03,100-6.33,150.02-4.85-100.07-2.18-200.2,9.13-297.43,32.69-24.23,5.89-48.69,11.59-72.51,18.84-47.62,15.18-93.92,34.85-142.21,48.31-72.39,21.04-147.97,30.3-223.26,30.15-50.18-.49-100.16-2.18-150.21-4.04-99.85-3.19-199.95-10.92-299.69-3.09-99.69,6.9-198.86,20.8-297.12,39.2-148.01,25.76-291.7,71.1-439.06,99.97-73.98,13.21-149.21,20.79-224.39,19.11-37.49-.25-75.08-3.1-112.4,1.12-37.21,4.78-73.64,14.54-109.38,25.8h0Z"/>
    <path d="M353.09,1454.17c2.78,1.15,6.27-.25,9.23-.51,0,0,9.24-1.78,9.24-1.78,30.76-6.26,61.66-12.78,93.05-13.66,12.61-.27,25.13.67,37.66,1.43,25.05,1.72,50.03,4,75.06,5.47,75.04,4.73,150.43.19,224.9-9.39,74.56-9.74,148.19-25.91,222.21-39.27,72.23-12.68,150.64-27.02,222.65-38.09,123.92-18.9,249.15-34.54,374.61-38.42,125.5-1.83,250.89,5.07,376.37,3.31,99.93-1.37,200.41-16.04,293.46-53.58,35.04-13.59,68.9-30.14,103.46-45,57.27-24.13,116.1-50.16,176.92-63.97,48.92-11.6,99.33-15.97,149.52-14.49-75.3-1.75-150.47,11.75-220.79,38.59-33.39,12.54-70.96,29.3-104.09,43.48-45.86,20.39-91.02,42.72-138.62,59.03-59.42,20.44-121.79,33.1-184.4,38.44-24.72,2.35-50.61,3.4-75.39,3.93-150.35,3.07-301.11-9.05-451.27,1.29-174.74,11.48-348.95,41.02-521.34,71.59-98.82,17.35-197.32,38.86-297.75,45-25.07,1.78-50.18,2.62-75.31,2.98-50.29.54-100.34-4.88-150.34-9.11-12.49-.91-25.02-2-37.51-1.88-31.26.5-62.41,6.66-93.04,12.53,0,0-9.26,1.66-9.26,1.66-3.06.24-6.39,1.57-9.25.4h0Z"/>
    <path d="M353.09,1454.17c1.01,1.27,2.75,1.5,4.25,1.77,11.03.9,22.08-.84,33.06-1.71,25.16-2.43,50.42-4.94,75.74-3.72,37.86,2.68,75.17,10.27,112.78,14.84,150.31,19.57,303.18-4.03,452.51-22.71,172.04-19.96,355.13-46.66,527.75-57.09,152.32-10.1,321.41-1.13,473.81-8.4,119.24-5.1,239.48-30.06,344.45-88.59,22.2-11.95,43.94-24.85,65.77-37.56,43.44-25.48,84.64-55.58,131.14-76.08,46.19-20.99,97.18-30.13,147.76-28.54-50.52-.97-101.21,8.73-147.02,30.2-46.03,20.95-86.68,51.41-130.04,77.55-21.73,12.93-43.4,25.93-65.63,38.11-66.54,37.02-139.19,62.5-214.03,76.29-143.98,25.83-308,16.59-454.45,19.11-151.57.69-302.53,16.39-452.98,33.92-86.6,10.97-215.34,26.25-301.1,36.12-100.28,12.77-201.51,22.35-302.73,17.66-63.37-2.06-125.21-17.4-188.08-23.49-25.21-1.51-50.49.69-75.62,2.82-11.01.74-22.08,2.35-33.11,1.32-1.51-.28-3.25-.53-4.25-1.82h0Z"/>
    <path d="M353.09,1454.17c1.88,2.71,5.38,3.39,8.4,4.08,9.45,1.68,19.1,1.53,28.67,1.65,25.57.06,51.27-.55,76.68,3.02,62.91,10.94,124.68,28.98,188.56,33.76,101.96,9.18,204.28,4.84,306.22-2.7,101.12-6.41,205.43-13.4,305.97-23.05,101.91-9.05,203.9-17.7,306.1-23.69,166.11-10.03,332.46-3.64,498.36-16.66,24.19-2.17,51.95-5.12,75.94-8.94,146.02-21.16,265.44-76.49,374.52-176.39,60.18-56.03,112.23-102.2,200.31-98.74-87.91-2.39-138.97,44.06-198.46,100.76-107.65,101.4-229.72,158.26-375.44,180.28-24.21,4.02-51.93,7.17-76.39,9.37-165.82,13.39-332.62,7.41-498.41,17.75-102.09,5.76-204.02,14.17-305.94,23.01-100.45,9.37-205.21,16.44-306.19,22-102.08,6.84-204.87,10.6-306.91.62-63.96-5.54-125.59-24.31-188.43-36.02-25.27-3.85-50.97-3.55-76.49-3.91-11.13-.46-22.62.24-33.29-3.35-1.44-.63-2.95-1.42-3.78-2.83h0Z"/>
    <path d="M353.09,1454.17c1.77,2.77,4.75,4.45,7.74,5.64,9.15,3.44,18.98,4.39,28.61,5.59,24.55,2.53,54.04,4.65,77.38,10.1,62.81,16.35,124.57,37.8,189.15,46.19,51.47,7.02,103.37,10.09,155.32,10.4,77.94.43,156.17-3.06,234.17,1.06,26.1,1.56,51.83,3.43,77.79,3.57,156-.44,311.2-19.73,466.99-27.83,103.97-6.29,208.1-6.48,311.95-10.81,233.96-9.36,479.6-25.71,642.42-217.35,50.18-59.31,88.8-138.93,178.9-134.1-89.93-3.81-127.34,76.06-176.8,135.84-161.95,194.53-409.05,212.64-644.24,222.37-104.02,4.55-208.07,4.99-311.81,11.46-155.8,7.76-311.24,26.74-467.48,26.83-26.08-.22-52.25-2.1-78.06-3.8-77.9-4.62-155.81-1.64-233.88-2.57-52.09-.68-104.2-4.01-155.78-11.5-64.65-9.16-126.25-31.34-188.95-48.45-24.79-5.97-52.34-8.05-77.12-10.97-9.65-1.3-19.47-2.38-28.6-5.93-2.98-1.22-5.96-2.95-7.69-5.74h0Z"/>
    <path d="M353.09,1454.17c8.02,10.99,22.97,13.04,35.29,16.39,25.92,5.77,52.36,9.42,77.74,17.53,62.66,21.54,124.56,46.48,189.94,58.6,130.67,25.83,264.48,19.59,396.57,32.63,32.68,3.61,66.14,7.27,99.03,8.14,152.66,4.38,304.91-10.27,457.38-17.25,192.05-9.77,385.41-7.46,575.47-39.46,71.39-12.72,142.53-32.82,207.69-64.99,70.92-34.98,135.46-85.81,180.16-151.54,14.82-21.96,27.25-45.44,39.47-69.01,12.42-23.42,24.15-47.7,41.72-67.81,17.1-20.77,43.83-32.18,70.63-30.65-26.84-1.18-53.05,10.34-69.95,31.25-17.27,20.22-28.68,44.55-40.79,68.04-23.25,47.78-50.91,94.24-89.45,131.42-75.51,76.28-176.8,121.26-279.81,146.66-207.78,47.94-423.2,41.28-634.77,53.51-132.58,6.14-265.23,16.82-398.13,17.38-39.57-.02-80.3-1.05-119.68-5.21-92.36-11.47-185.15-13.66-278.01-19.42-53.07-3.63-106.04-9.74-158.23-20.14-65.42-12.9-127.14-38.56-189.66-60.86-25.2-8.37-51.61-12.33-77.43-18.38-12.5-3.5-27.15-5.74-35.18-16.83h0Z"/>
    <path d="M353.09,1454.17c7.56,11.66,21.64,16.38,34.04,21.11,25.71,8.94,52.39,15.01,77.67,25.29,62.51,26.52,124.73,55.17,190.9,71.05,52.81,12.99,106.24,23.38,160.05,31.28,269.78,38.94,542.65,38.68,814.54,28.11,163.14-5.73,326.57-9.54,488.48-31.28,46.98-5.91,94.23-14.16,140.14-25.71,110.98-27.55,221.59-76.57,298.39-163.84,36.84-40.24,61.57-89.61,78.62-141.16,8.97-25.66,16.22-52.02,27.38-76.96,11.37-26.14,30.73-46.91,61.56-45.19-30.88-1.26-49.43,19.16-60.73,45.56-20.62,50.31-31.36,104.6-57.59,152.79-25.49,48.48-63.08,89.93-106,123.64-64.58,50.75-141.79,83.43-220.41,105.54-105.29,29.43-214.62,39.42-323.15,48.6-217.49,14.21-435.28,20.66-653.21,20.92-107.55.42-219.12-6.86-326.37-17.26-162.1-15.35-327.59-37.07-475.77-108.4-24.81-11.22-49.61-22.35-75.8-30.01-12.97-4.09-26.07-7.86-38.87-12.55-12.5-4.87-26.36-9.78-33.89-21.54h0Z"/>
    <path d="M353.09,1454.17c7.49,12.06,20.37,19.17,32.71,25.37,12.58,6.13,25.62,11.24,38.6,16.49,26.19,10.02,51.14,22.91,76.07,35.65,74.44,39.31,153.6,67.8,235.4,87.04,300.1,71.32,610.36,82.53,917.62,73.4,167.77-4.49,335.89-11.08,501.79-37.6,55.26-8.44,109.97-20.08,163.34-36.62,79.57-24.56,157.45-60.74,220.66-115.73,41.87-36.62,77.33-81.46,99.08-132.9,22.31-51.62,29.34-107.75,39.62-162.61,5.2-25.76,14.82-61.63,47.57-59.62-32.78-1.58-41.7,34.09-46.68,59.8-9.7,55.06-16.13,111.42-37.99,163.48-24.04,58.76-65.78,109.02-114.96,148.61-60.46,48.22-132.13,81.33-205.59,104.43-53.51,16.99-108.63,29-164.04,37.51-166.14,26.9-334.7,33.89-502.61,38.68-223.95,5.51-449.08,3.29-671.01-30.27-111.04-15.13-221.66-35.89-328.76-69.37-67.22-20.79-129.49-53.61-191.56-85.93-24.99-12.62-51.66-21.61-76.76-34.03-12.36-6.34-25.11-13.62-32.51-25.77h0Z"/>
    <path d="M353.09,1454.17c7.54,12.47,19.39,21.4,31.43,29.18,24.55,15.27,51.13,26.82,76.18,41.24,61.93,36.46,125.51,72.57,193.25,96.5,54.32,19.44,109.63,36.05,165.61,50,105,26.01,212.03,43.52,319.09,58.69,178.91,22.95,359.78,26.94,539.97,23.52,201.52-4.5,404.74-15.14,601.14-63.24,66-16.47,131.38-39.99,191.31-72.32,123.27-67.8,206.84-168.78,219.63-312.39,3.15-28.68,3.81-57.57,4.85-86.43,1.79-20.29-.57-60.14,20.11-69.96,3.33-1.45,7-1.94,10.6-1.81-3.6-.09-7.26.44-10.55,1.92-20.35,9.83-17.8,50.09-19.25,69.88-1.03,57.66-2.94,116.21-20.2,171.77-24.82,84.2-85.02,153.76-156.58,202.73-71.7,49.08-154.59,80.99-238.36,102.64-196.72,48.69-400.69,59.76-602.54,64.63-231.05,4.42-463.39-5.14-690.78-48.76-113.77-20.43-226.69-47.48-335.28-87.48-67.77-24.76-131.17-61.55-192.69-98.73-24.87-14.66-51.36-26.5-75.74-42.03-11.99-7.91-23.78-17.01-31.19-29.55h0Z"/>
    <path d="M353.09,1454.17c7.7,12.85,18.62,23.34,30.33,32.53,23.57,18.36,49.81,32.82,74.67,49.31,158.54,113.91,347.47,172.39,536.38,213.15,233.05,52.27,472.47,69.03,710.9,65.21,208.18-3.37,418.44-18.31,619.63-74.72,113.14-33.04,226.36-85.11,304.62-175.88,84.88-97.6,97.54-211.2,84.4-335.51-1.26-14.86-2.76-29.73-3.22-44.67.61-12.95-2.15-36.16,16.14-36.32-17.99.28-15.52,23.66-15.68,36.3.61,14.9,2.26,29.74,3.67,44.6,14.45,124.65,2.84,239.77-82.12,338.31-88.59,103.58-220.2,157.65-349.32,191.12-188.89,46.29-384.07,61.22-578,64.19-238.84,3.18-479.02-13.42-712.23-67.08-189.01-41.82-378.42-101.59-535.91-217.59-24.69-16.73-50.82-31.48-74.2-50.09-11.64-9.31-22.48-19.94-30.05-32.88h0Z"/>
    <path d="M353.09,1454.17c24.59,39.9,65.81,64.85,102.17,92.85,157.91,125.88,351.03,195.4,544.66,245.01,358.69,91.01,736.5,105.86,1102.75,56.79,202.07-31.78,446.6-86.06,573.97-260.15,89.19-123.43,77.57-258.56,46.57-399.47-1.38-7.6-2.74-15.22-3.36-22.93-.15-5.64-1.11-12.08,2.53-16.85,1.29-1.5,3.33-2.08,5.25-2.01-1.92-.05-3.94.55-5.21,2.05-1.28,1.46-1.86,3.39-2.2,5.26-1.49,11.51,1.51,23.08,3.43,34.4,0,0,9.41,45.38,9.41,45.38,45.21,206.7-7.04,366.33-189.4,481.7-78.48,48.92-168.43,81.08-257.9,103.34-519.25,129.62-1404,72.56-1831.32-271.42-36.14-28.36-77.14-53.79-101.35-93.94h0Z"/>
    <path d="M353.09,1454.17c24.79,41.52,62.93,72.38,99.19,103.45,157.2,137.91,354.44,218.88,553,277.33,410.97,119.43,912.44,141.97,1326.93,28.89,106.84-30.66,212.93-73.69,298.75-145.83,167.61-142.2,170.5-329.94,104.37-525.56-1.57-7.85-16.57-44.6-7.01-44.92-9.43-.06,6.07,38.61,7.45,44.78,15,45.63,28.46,91.92,35.86,139.48,32.27,195.45-48.62,345.5-215.8,446.12-41.06,24.15-85.75,45.49-130.4,62.02-22.2,8.7-45.62,16.06-68.38,23.28-192.22,57.55-393.69,79.41-593.81,80.9-383.08.83-774.37-67.79-1115.71-247.27-70.46-38.35-135.87-85.4-196.12-138.2-36-31.42-73.9-62.72-98.31-104.48h0Z"/>
    <path d="M353.09,1454.17c25.26,43.1,60.23,79.32,96.15,113.63,59.89,57.38,126.74,107.4,198.08,149.57,496.42,282.97,1187.73,361,1734.83,195.54,154.55-49.27,315.57-133.12,387.56-286.31,65.02-137.7,35.09-298.35-23.39-433.1-3.11-7.1-11.75-27.3-14.72-34.33-1.26-3.38-2.93-6.72-3.33-10.34-.04-.48.12-1.18.73-1.15-.61-.03-.76.67-.72,1.15.09,1.56.66,3.04,1.14,4.51,1.02,3.12,5.76,13.79,7.24,17.21,65.83,140.74,105.53,310.69,36.84,457.82-71.83,154.79-233.55,240.8-389.4,290.67-545.21,167.66-1245.37,88.05-1738.64-198.55-71.17-42.96-137.67-93.65-197.16-151.7-35.64-34.64-70.34-71.26-95.22-114.6h0Z"/>
    <path d="M353.09,1454.17c144.49,237.43,409.6,373.69,662.43,467.89,451.81,157.43,961.51,195.82,1418.46,38.37,127.7-46.04,254.65-115.5,332.87-229.82,101.24-145.16,80.4-337.2,10.89-491.48-13.94-31.45-29.58-62.24-48.05-91.33,19.03,28.73,35.29,59.26,49.86,90.51,57.64,124.18,86.14,270.87,39.71,403.3-86.39,239.23-355.36,329.49-582.29,381.27-405.6,84.56-833.73,40.44-1222.58-97.69-252.84-95.37-517.53-232.76-661.3-471.02h0Z"/>
  </g>
  <g>
    <path d="M1307.69,1044.61c35.87-26.63,55.68-37.45,84.82-53.63,20-11.1,53.16-29.83,70.22-32.48,1.73-.27,3.46.07,4.94.99,6.45,3.99,23.58,17,32.39,55.68,4.34,19.05-35.55,31.31-70.35,37.54-36.96,6.62-89.66,13.41-122.03-8.11Z"/>
    <path d="M1483.87,952.2c-.61-1.21-.3-2.73.75-3.58,21.03-17.05,53.72-26.02,61.65-29.09,61.5-23.76,97.46-33.77,145.83-40.61,30.73-4.35,69.21-5.51,117.65-4.73,40.47.65,81.62,1.53,121.18-1.95,62.98-5.54,99.08-10.05,154.99-25.06,31.66-8.5,72.91-15.84,94.3-16.74,57.84-2.45,88.41,21.51,103.42,37.58,12.22,13.08-32.15,95.97-51.38,106.6-57.24,31.63-240.84,58.83-325.67,16.01-1.53-.77-1.17-15.43-3.03-15.07-18.6,10.2-20.97,25.71-58.27,41.79-69.47,29.95-218.8,24.54-257.93,12.98-44.72-13.21-67.73-6.75-103.49-78.12Z"/>
  </g>
  <g>
    <path d="M2718.93,1100.28c17.17-34.1,27.89-71.15,38.29-107.77,38.49-145.96,49.69-306.07-4.22-449.52-66.2-172.03-225.79-329.61-416.92-340.17-57.61-2.42-110.66,24.07-166.66,33.96-94.53,17.23-192.86,15.41-286.89-3.98-46.89-9.97-92.68-22.34-140.18-26.43-66.14-5.64-133.27-3.68-198.86,6.47-75.15,11.84-148.15,36.24-215.93,70.77-373.56,192.02-688.2,497.74-886.64,868.35-35.79,67.44-68.74,136.71-93.64,208.98,24.61-72.38,57.29-141.81,92.81-209.42,197.3-371.91,511.12-679.63,884.77-873.16,68.04-35.51,141.54-60.85,217.31-73.54,75.86-12.19,153.46-14.98,229.78-4.67,75.71,11.78,148.48,35.52,225.43,36.77,75.75,3.4,152.25-2.56,225.07-24.65,36.7-10.82,75-22.12,113.94-20.2,156.43,8.19,292.5,115.6,373.35,244.58,83.77,130.9,100.56,293.75,74.58,444.43-9.31,56.66-23.49,112.48-42.87,166.51-6.66,17.88-13.23,35.96-22.51,52.68h0Z"/>
    <path d="M347.27,1360.94c2.42.02,4.11-2.02,5.64-3.63,10-12.74,16.64-27.75,24.26-41.96,0,0,25.15-49.49,25.15-49.49,149.42-298.41,372.94-558.17,640.09-757.52,74.6-55.1,152.82-105.24,233.66-150.66,47.72-25.9,99.64-54.43,150.99-71.81,122.21-43.04,258.58-54.78,385.84-29.33,54.1,11.64,108.02,24.36,163.4,26.81,73.29,3.92,147.58.05,218.64-19.32,35.78-9.49,71.85-21.83,109.47-22.67,18.79-.77,37.67,1.01,56.21,3.95,167.78,27.87,302.93,161.93,364.95,315.95,48.7,121.56,45.9,257.57,19.01,383.83-12.17,54.01-26.67,108.32-50.99,158.24,23.69-50.14,37.48-104.58,48.99-158.66,25.27-125.93,26.1-260.77-22.83-381.07-62.05-151.24-195.65-282.05-360.64-308.9-17.94-2.79-36.23-4.5-54.35-3.71-36.87.96-71.75,13.13-107.28,22.6-108.04,28.46-223.43,27.74-332.46,5.06-36.13-7.73-71.96-16.1-108.6-20.29-109.38-10.77-221.97.71-325.79,37.52-50.62,16.99-102.55,45.18-149.57,70.76-96.4,53.68-189.8,115.2-277.09,182.86-247.39,193.24-456.09,437.71-600.44,716.98,0,0-25.75,49.18-25.75,49.18-4.32,8.18-8.67,16.35-13.28,24.38-3.52,5.97-6.96,12.07-11.52,17.32-1.55,1.59-3.28,3.62-5.7,3.57h0Z"/>
    <path d="M347.27,1360.94c20.58,2.35,54.87-63.94,66.2-81.11,54.5-92.77,111.12-184.52,177.2-269.66,121.74-155.02,261.44-297.49,417.04-418.78,92.08-71.05,190.53-136.07,292.88-191.52,0,0,23.76-12.71,23.76-12.71,94.41-52.95,200.77-84.96,308.91-91.65,45.02-2.7,90.5-2.64,135.25,3.34,62.19,8.48,122.31,27.05,185.28,30.6,70.86,4.76,142.98,2.26,212.24-14.33,35-8.02,69.2-20.47,105.34-24.07,185.06-13.03,349.95,127.14,419.45,290.56,43.9,99.32,49.43,211.71,34.61,317.98-4.91,35.56-12.12,70.81-21.42,105.47-9.68,34.46-19.98,69.12-35.78,101.32,15.29-32.4,25.01-67.2,34.15-101.75,34.54-137.42,41.29-288.8-17.31-420.51-56.85-129.27-168.51-239.96-307.75-274.19-87.7-21.47-125.77-7.2-208.99,14.83-70.3,17.01-143.38,19.74-215.3,15.08-17.67-1.03-36.44-3.51-53.84-6-44.35-6.69-87.65-18.62-132.07-24.22-44.01-5.82-88.76-5.69-133.13-2.98-106.86,6.41-211.28,37.58-304.77,89.72-13.44,7.39-34.08,17.71-47.24,25.43-250.42,139.29-470.21,330.12-653.21,550.04-80.93,95.91-149.34,201.43-213.87,308.88-9.44,15.24-18.88,30.5-29.08,45.26-5.12,7.36-10.41,14.63-16.38,21.35-6.08,6.27-12.72,14.13-22.17,13.63h0Z"/>
    <path d="M347.27,1360.94c29.66,2.21,59.21-44.5,75.61-65.91,20.13-28.25,39.18-57.29,58.71-86.01,38.89-57.58,79.47-114.12,123.58-167.87,134.2-159.43,284.32-306.89,452.6-430.23,22.82-16.99,51.23-36.63,74.58-52.73,5.84-3.57,47.57-31.24,54.64-35.66,34.45-21.63,77.13-46.73,112.29-66.48,11.54-6.19,34.55-18.38,46.07-24.55,115.25-63,247.74-92.72,378.85-86.64,69.98,2.29,136.76,24.64,206.15,30.52,85.8,7.5,173.25,2.19,256.27-21.63,33.61-9.22,68.74-17.18,103.98-15.42,52.75,2.42,104.72,16,152.07,39.21,118.19,58.45,204.12,172.16,240.58,297.61,20.93,75.73,22.59,155.77,12.87,233.38-9.36,68.67-24.84,137.46-53.25,200.88,7.44-15.68,12.83-32.25,18.13-48.76,35.05-115.38,49.99-240.25,23.19-358.87-31.45-133.46-121.06-255.96-245.27-316.53-61.48-28.77-131.86-44.93-199.53-33.86-33.96,6-67.09,17.47-101.11,24.19-85.75,16.92-174.7,17.28-260.9,3.39-51.13-8.79-101.82-21.68-153.68-23.22-129.16-5.49-259.81,23.07-373.52,85.01-254.41,131.27-479.4,314.85-671.96,525.88-70.62,75.89-135.68,158.55-194.2,244.04-19.87,28.46-39.25,57.29-59.78,85.33-18.73,23.66-47.22,67.23-76.97,64.93h0Z"/>
    <path d="M347.27,1360.94c35.1,2.69,60.89-27.09,82.83-50.44,22.24-25.15,42.38-52.1,62.7-78.88,40.39-53.74,81.18-107.36,125.56-158.05,42.02-48.12,94.07-100.76,139.18-146.29,148.74-148.67,313.94-282.18,495.38-389.03,51.29-29.37,102.37-58.61,156.35-83.09,61.92-27.5,127.89-45.9,195.07-54.69,67.15-8.69,135.93-8.7,202.52,3.9,65.99,13.49,131.79,23.02,199.16,20.69,50.18-.91,100-6.7,148.61-19.19,32.71-8.07,65.71-17.97,99.8-19.1,17.11-.61,34.26.34,51.09,2.41,164.16,17.48,294.53,149.67,343.37,302.58,23.08,72.62,26.09,150.43,17.8,225.54-8.03,66.66-22.51,133.36-49.16,195.16,25.52-62.1,38.92-128.91,46.22-195.46,7.37-74.95,3.25-151.81-20.28-223.47-49.01-149.56-177.84-279.22-339.06-295.05-16.56-1.91-33.06-2.82-49.56-2.19-33.41,1.23-65.45,11.01-97.87,19.08-49.15,12.78-100.08,18.83-150.75,19.86-67.52,2.57-135.41-7-201.24-20.34-65.74-12.28-133.1-11.99-199.22-3.35-66.19,8.5-131.15,26.43-192.23,53.37-53.25,23.98-104.62,53.19-155.47,82.14-180.89,106.25-346.08,238.39-495.62,385.23-45.27,45.06-97.57,97.25-140.03,144.89-44.86,49.98-86.24,102.99-127.3,156.24-32.33,38.82-95.07,135.24-147.86,127.53h0Z"/>
    <path d="M347.27,1360.94c62.72,6.79,116.73-63.95,154.95-106.01,38.26-45.36,88.3-105.25,127.94-147.7,31.54-34.36,70.13-70.78,103.5-103.85,174.44-170.85,366-326.94,580.8-444.46,28.61-15.84,57.45-30.89,86.79-45.44,103.61-49.44,219.46-73.49,334.21-68.1,48.98,2.18,97.29,14.29,145.35,20.77,32.04,4.22,64.34,6.08,96.71,5.94,48.55-.02,97.02-3.96,144.42-14.49,31.91-6.74,63.18-16.73,95.82-20.71,49.2-5.68,99.32,1.5,146.54,15.92,62.94,19.87,118.62,59.24,162.28,108.23,43.53,49.05,75.92,107.84,95.12,170.46,18.31,62.91,21.46,129.4,15.35,194.37-6.57,64.7-20.02,129.39-44.87,189.61,6.41-14.97,11.17-30.57,15.72-46.18,4.47-15.64,8.39-31.43,11.81-47.33,35.79-166.45,18.43-325.25-98.36-456.23-74.7-85.12-189.59-131.96-302.4-119.42-32.09,4.01-63.18,14.03-94.92,20.81-47.98,10.8-97.41,14.96-146.47,15.1-32.73.22-65.57-1.58-98.1-5.78-48.69-6.42-95.69-18.22-144.55-20.31-112.95-4.77-226.9,18.58-329.09,66.94-42.28,20.37-87.74,45.57-128.87,68.69-211.41,121.86-399.85,279.96-573.82,450.24-69.23,64.61-136.63,143-198.69,214.83-39.51,42.39-93.83,111.73-157.16,104.08h0Z"/>
    <path d="M347.27,1360.94c65.52,7.68,118.36-40.37,162.2-82.67,44.7-44.41,86.34-91.82,130.99-136.35,90.6-87.79,184.26-172.35,280.59-253.84,96.52-81.05,198.88-156.32,306.11-222.59,137.8-83.57,273.72-160.19,438.62-169.1,31.73-2.01,63.63-2.36,95.29.81,62.92,7.01,123.84,21.96,187.24,21.69,62.73,1.28,125.26-4.52,186.2-19.95,30.48-7.24,61.76-15.31,93.98-15.8,63.7-.83,128.46,11.97,183.81,44.36,76.24,43.93,132.39,116.54,165.99,196.97,27.57,66.08,34.2,139.19,28.96,209.82-5.11,62.77-17.35,125.53-40.42,184.24,11.44-29.35,18.87-60.13,25.19-90.93,28.97-144.18,14.99-283.5-78.29-401.78-71.55-90.78-169.54-136.67-284.96-133.32-31.04.63-61.35,8.43-92.02,15.84-61.39,15.74-125.28,21.86-188.61,20.72-63.26.49-125.83-14.42-188.08-21.23-124.66-10.13-251.55,18.12-362.8,74.64-254.5,126.17-476.12,307.21-683.97,498.89-71.24,62.35-134.41,132.68-201.78,199.04-44.52,41.94-98.62,89.51-164.25,80.55h0Z"/>
    <path d="M347.27,1360.94c95.53,12.06,170.65-60.73,235.31-120.7,44.16-42.04,88.45-84.32,135.18-123.53,183.57-160.28,371.42-320.08,584.51-440.1,53.66-29.42,107.09-59.78,164.01-82.63,114.1-45.51,241.09-61.28,361.99-37.98,89.8,14.49,182.14,13.24,271.43-3.68,29.77-5.62,59.35-13.6,89.97-17.88,61.01-8.7,125.39-2.41,180.99,25.32,90.83,43.98,156.13,129.41,188.11,223.8,16.44,51.15,21.09,105.53,18.41,158.97-3.5,60.89-14.46,121.8-35.71,179.06,10.47-28.64,17.23-58.53,22.76-88.46,13.24-74.57,15.79-152.55-3.82-226.18-28.69-101.34-97-194.37-193.14-240.14-54.44-26.55-116.85-32.06-176.27-23.11-29.83,4.33-59.3,12.28-89.45,18.09-90.39,17.4-184.01,18.91-274.83,4.51-30.22-4.62-60.11-9.26-90.29-10.21-90.74-2.77-181.71,15.11-266.14,48.03-56.46,22.49-109.58,52.51-162.89,81.53-226.05,126.84-424.04,297.76-620.42,465.43-34.58,29.93-67.85,61.26-101.55,92.23-65.72,59.31-142.44,131.64-238.17,117.63h0Z"/>
    <path d="M347.27,1360.94c124.53,16.92,220.45-73.45,308.56-147.61,45.08-38.17,92.11-73.93,137.78-111.39,91.63-74.54,182.73-149.95,278.35-219.47,95.7-69.57,195.62-133.47,300.28-188.81,52.05-27.18,106.82-54.28,163.4-70.3,57.09-16.84,116.28-26.86,175.84-28.13,44.76-1.41,88.88,6.07,132.91,11.9,43.7,5.54,87.73,6.86,131.76,4.84,44.08-1.76,87.76-7.27,130.89-16.44,43.45-9.44,87.48-18.8,132.35-17.47,90.59.39,175.56,51.19,229.04,122.63,77.7,102.63,90.8,213.86,69.55,338.14-5.26,29.04-11.82,58-21.85,85.79,9.49-27.94,15.49-56.98,20.19-86.07,19.26-123.83,4.98-232.62-72.88-334.05-52.88-69.28-135.76-118.22-224.19-117.86-44.07-.95-87.32,8.84-130.26,18.21-43.5,9.39-87.94,15.11-132.38,17.01-44.45,2.17-89.24.95-133.46-4.53-43.69-5.65-87.38-12.97-131.43-11.45-58.55,1.4-116.79,11.5-172.9,28.15-55.88,15.65-110.18,42.3-161.63,69.04-104.37,54.81-204.03,118.15-299.57,187.19-131.45,95.21-255.76,199.86-383.98,299.34-57.28,45.47-113.01,96.83-176.27,134.06-50.77,30.43-111.08,46.26-170.1,37.28h0Z"/>
    <path d="M347.27,1360.94c125.78,15.2,216.55-39.13,312.95-111.74,43.91-33,93.98-68.21,138.04-101.55,175.75-134.43,348.29-275.7,543.28-382.07,56.72-30.61,113.8-61.76,174.9-82.86,54.46-18.73,111.12-31.2,168.59-35.8,28.7-2.28,57.79-2.34,86.48.32,28.71,2.68,56.89,7.16,85.16,9.62,56.48,4.82,113.74,3.77,169.95-3.49,42.44-5.08,83.86-17.1,126.28-23.46,42.99-5.36,86.63-6.09,129.43,2.31,101.22,20.81,175.53,106.67,211.79,199.64,15.33,40.34,21.48,83.76,21.9,126.71.21,57.17-7.88,114.62-25.25,169.09,8.46-27.3,13.67-55.49,17.47-83.74,7.36-56.36,7.46-114.36-5.79-169.79-20.15-79.16-73.28-160.49-143.69-203.25-60.45-38.78-135.25-41.52-204.56-32.09-42.26,6.84-83.54,18.91-126.31,24.15-28.51,3.89-57.26,5.91-85.95,6.53-57.23,2.42-114.86-5.65-171.37-11.85-56.48-5.06-113.36.65-168.69,12.62-97.97,20.03-187.27,66.73-273.94,114.96-136.99,76.64-263.99,169.56-388.73,264.66-56.5,42.93-113.82,87.01-171.36,128.76-33.15,23.64-71.52,50.94-104.44,74.97-97.67,71.27-190.18,125.24-316.16,107.34h0Z"/>
    <path d="M347.27,1360.94c160.81,18.32,255.82-36.36,384.51-121.44,163.24-104.25,311.11-230.46,473.65-335.85,69.65-45.34,141.36-87.86,215.82-124.86,98.47-51.59,208.58-84.5,320.38-83.51,28.01.52,55.7,4.07,83.07,6.91,54.69,5.99,109.91,5.82,164.67.93,55.36-4.32,108.27-20.18,163.42-27.35,92.17-10.62,163.57-.36,233.15,66.55,34.86,34.41,60.5,77,78.93,122.08,11.67,32.54,18.27,67.56,19.72,101.98,2.46,55.3-3.92,111.15-19.18,164.33,7.36-26.66,11.71-54.06,14.49-81.52,6.1-61.38,2.91-125.14-19.25-183.17-18.81-43.93-44.71-85.83-79.08-119.19-68.37-64.6-137.86-73.73-227.77-62.53-54.42,7.69-108.25,24.08-163.51,28.43-55.37,5.12-111.3,5.45-166.62-.43-54.9-6.79-109.36-9.77-164.09-1.05-81.69,11.69-160.41,39.26-233.48,77.3-74.23,36.59-145.65,78.66-215.15,123.6-162.48,105.2-311.56,230-475.82,332.64-128.31,83.46-228.86,138.06-387.87,116.17h0Z"/>
    <path d="M347.27,1360.94c79.6,9.25,161.24,6.68,238.25-16.4,51.24-15.33,99.41-38.81,146.07-64.74,70.58-38.27,137.79-81.99,203.37-128.27,158.18-112.35,313.38-231.52,487.6-318.59,101.18-52.77,213.77-89.93,328.97-87.64,40.2,1.36,80.16,7.33,120.2,8.16,53.18,1.25,106.62-1.75,159.14-10.49,39.47-6.27,78.78-16.83,118.73-21.3,40.13-4.95,81.73-7.82,120.97,4.86,79.21,24.39,134.25,94.57,164.43,168.96,19.06,50.58,22.27,105.62,18.09,159.02-2.32,26.7-6.17,53.33-13.01,79.24,11.89-52.05,15.37-106.3,9.72-159.35-5.11-53.46-26.29-103.5-57.59-146.82-45.87-67.23-119.28-109.77-201.9-101.84-53.6,2.91-105.14,16.91-157.88,26.46-53.12,9.11-107.09,12.23-160.96,11.17-40.33-.71-80.11-6.53-120.21-7.78-93.01-1.49-185.18,23.41-269.71,61.09-34.83,15.94-73.37,35.59-107.3,53.84-153.44,82.59-291.44,188.88-434.4,288.03-66.11,45.73-134.18,89.09-205.26,126.75-47.08,25.7-96.1,48.7-147.9,63.26-77.64,22.11-159.84,23.33-239.42,12.37h0Z"/>
    <path d="M347.27,1360.94c102.53,12.01,208.33,11.87,308.08-17.09,199.87-61.19,362.53-198.31,533.09-313.91,85.57-58.41,174.61-114.29,268.21-158.93,93.17-45.84,196.66-77.9,301.43-75.84,52.08,2.37,103.14,7.75,155.16,5,51.69-1.76,102.88-8.3,153.51-18.92,50.26-9.47,103.45-23.97,155.12-18.14,66.72,8.16,121.72,54.05,155.58,110.12,21.62,32.68,36.7,69.8,42.32,108.58,7.94,51.5,5.68,104.29-5.04,155,9.64-50.79,10.7-103.55,2.13-154.51-6.28-38.45-21.55-74.44-43.47-106.44-34.28-54.23-87.06-98.32-152.37-105.75-50.17-5.18-103.34,9.76-152.52,19.55-50.81,11.26-102.82,18.33-154.88,20.16-51.83,2.94-104.28-2.28-155.8-4.49-169.84-2.5-324.61,83.94-466.11,169.29-31.53,19.5-66.64,42.89-97.55,63.7-194.34,130.9-411.02,313.88-652.65,330.4-63.75,5.28-130.9.79-194.24-7.76h0Z"/>
    <path d="M347.27,1360.94c124.23,13.87,252.05,20.75,374.39-9.4,171.65-44.57,313.95-155.37,457.15-255.37,123.28-86.7,251.92-170.81,395.83-219.68,48.26-15.6,97.93-27.05,148.65-30.91,50.61-3.39,100.66,3.8,151.1,2.34,50.05-.9,100.09-4.79,149.42-13.43,49.88-7.76,97.69-24.47,148.34-28.96,51.13-3.99,103.16,17.23,138.51,53.97,17.85,18.16,32.61,38.91,45.8,60.4,40.3,63.05,44.34,147.73,32.91,219.93,8.56-61.43,5.41-127.23-18.22-185.08-15.5-33.87-38.05-65.19-64.01-91.7-26.35-26.34-60.85-44.03-97.61-49.65-37.31-5.71-73.99,4.34-110.36,12.97-73.32,18.89-148.84,30.11-224.63,31.11-50.18,1.65-100.65-5.34-150.55-1.84-49.6,3.94-98.74,15.44-146.02,30.92-190.77,65.83-352.44,190.98-517.15,304.28-103.87,70.57-214.67,136.4-337.69,166.7-123.21,28.96-251.59,20.02-375.87,3.39h0Z"/>
  </g>
  <path d="M353.09,1454.17c35.52-12.15,71.79-22.92,109.05-28.39,62.24-7.21,125.21-.26,187.5-6.05,99.75-6.97,197.32-28.19,293.67-54.63,241.6-64.04,490.73-119.05,742.19-111.27,100,3.14,200.01,9.16,299.86,10.74,74.43.44,148.9-7.81,220.67-27.72,48.31-12.94,94.55-31.79,142.6-46.33,24.34-6.99,48.65-12.39,73.26-17.93,98.05-21.59,198.84-31.37,298.87-26.47-25.03.04-50.05.25-75,1.84-74.84,3.75-149.15,15.46-221.81,33.52-24.06,6.05-48.58,11.9-72.17,19.29-23.6,7.54-46.87,16.64-70.42,25.29-93.97,36.23-195.09,55.66-296,55.09-125.27-.27-249.99-10.22-375.08-9.93-224.7,6.01-445.95,52.9-663.35,107.9-48.57,12.1-97.38,24.21-146.98,32.7-74.23,12.76-149.76,19.89-225.09,17.59-37.49-.54-74.94-3.69-112.23.23-37.17,4.54-73.68,13.74-109.54,24.56h0Z"/>
  <path d="M353.09,1454.17c145.07,236.19,410.76,372.31,663.29,465.51,451.34,156.2,960.04,193.78,1415.93,36.09,126.31-46.49,252.34-114.94,329.97-228.24,78.99-113.23,85.63-260.7,47.8-390.67-18.21-65.98-45.29-129.79-80.4-189.06,19.7,28.32,36.45,58.66,51.38,89.83,59.64,124.19,89.19,272.01,43.06,405.7-86.01,241.9-357.53,332.28-586.15,384.18-406.47,83.98-835.24,39.32-1224.44-99.92-252.78-96.14-517.62-234.22-660.44-473.41h0Z"/>
  <path d="M2718.93,1100.28c16.88-34.23,27.15-71.38,37.43-108.01,37.66-145.74,48.34-305.5-5.83-448.35-65.73-170.02-225.69-327.03-414.56-337.35-37.78-1.64-73.25,9.28-109.45,19.98-74.18,22.49-152.63,28.24-229.79,24.6-38.57-1.76-77.29-6.49-114.96-14.75-42.45-9.1-83.34-20.13-125.7-25.25-32.64-3.91-66.19-4.99-99.02-4.59-165.08.68-289.42,50.08-428.79,133.93-329.84,191.87-605.86,475.57-786.93,811.7-35.93,67.36-69.02,136.54-94.08,208.74,24.45-72.44,56.99-141.95,92.38-209.65,196.74-372.48,510.68-680.63,884.31-874.67,68.12-35.83,141.79-61.49,217.77-74.47,76.2-12.49,153.92-15.53,230.7-5.34,75.94,11.61,148.2,34.99,225.12,36.36,75.37,3.39,151.41-2.49,223.87-24.46,36.82-10.89,75.83-22.32,115.07-20.37,157.74,8.03,294.72,116.51,375.78,246.73,83.64,131.71,100.21,294.97,73.42,446.24-9.63,56.68-23.89,112.55-43.78,166.46-6.82,17.84-13.56,35.87-22.99,52.51h0Z"/>
  <path d="M347.27,1360.94c99.54,10.36,201.04,16.32,300.4,2.77,99.57-12.67,192.98-52.62,279.35-102.52,215.8-127.63,404.48-307.33,646.45-388.26,48.6-15.7,98.43-27.3,149.57-31.01,25.66-1.84,51.36-.57,76.4.77,50.02,3.08,99.8,2.56,149.65-1.62,49.92-3.98,98.92-13.16,147.7-24.71,36.66-8.32,75.81-18.04,114.04-11.49,38.32,6.44,74.23,25.38,101,53.46,26.21,27.98,47.9,59.8,63.2,94.79,22.88,59.02,24.65,124.85,14.33,186.71,8.14-61.08,4.59-127.37-19.2-184.67-15.56-33.59-38.31-64.79-64.21-90.93-26.27-25.93-60.41-43.23-96.77-48.61-37.08-5.47-73.07,4.76-109.38,13.43-73.43,19.1-149.26,30.48-225.21,31.7-50.07,1.79-100.72-5.05-150.34-1.43-99.46,8.33-193.96,44.41-282.23,90.05-134.38,67.63-254.94,159.74-379.34,244.22-124.7,84.43-261.45,162.88-413.91,178.97-100.48,10.79-201.88,2.72-301.51-11.62h0Z"/>
  <path d="M1772.21,1150.47c18.61,18.25,33.09,40.25,39.13,65.79-13.38-30.53-40.05-52.26-69.31-66.59-261.83-115.42-588.95,122.97-819.89,210.9,313.93-78.09,488.36-127.07,781.37-118.63,119.41,3.44,229.16,11.94,295.02,10.78,54.55-2.22,94.86-3.65,156.08-17-132.73-147.8-325.43-102.89-382.39-85.25Z"/>
</svg>